#!OML:ASF E:\emotionWalksFemale\Project 1\Capture day 1\Session 1\Female1.ASF
:FULLY-SPECIFIED
:DEGREES
888
root -6.69583 15.5512 -17.4447 172.4 -16.2935 -178.519
lowerback 5.39838 -0.880786 -3.15549
upperback -5.63601 -1.73866 -0.722275
thorax -8.92268 -0.750833 1.24232
lowerneck -13.8746 -4.18795 -7.38728
upperneck 24.0585 -6.02492 3.95703
head 10.3186 -3.3598 1.78841
rclavicle 1.92821e-014 5.56597e-015
rhumerus 21.6087 11.724 -41.1562
rradius 27.8015
rwrist 21.2149
rhand -8.26064 -45.9041
rfingers 7.12502
rthumb -162.342 104.878
lclavicle 1.92821e-014 5.56597e-015
lhumerus 24.8482 -11.1757 58.0168
lradius 26.9485
lwrist -36.2293
lhand -7.38677 -40.2851
lfingers 7.12502
lthumb 18.4988 -11.1447
rfemur -15.5218 -3.30147 21.0349
rtibia 59.9662
rfoot -13.7604 -13.8699
rtoes -4.53387
lfemur 5.91865 -24.7675 -25.7703
ltibia 20.5425
lfoot -23.574 24.851
ltoes -4.00117
889
root -6.73841 15.5389 -17.5274 172.405 -15.941 -178.475
lowerback 5.44199 -0.880115 -3.22785
upperback -5.66372 -1.75308 -0.74977
thorax -8.97772 -0.754331 1.25714
lowerneck -14.5026 -4.56671 -7.65729
upperneck 24.3068 -6.46258 4.02489
head 10.5732 -3.56304 1.78214
rclavicle -2.5842e-015 2.54444e-014
rhumerus 21.6415 11.9255 -40.9331
rradius 27.8164
rwrist 21.1359
rhand -7.94741 -45.8938
rfingers 7.12502
rthumb -162.041 104.915
lclavicle -2.5842e-015 2.54444e-014
lhumerus 25.1127 -11.115 58.1358
lradius 26.534
lwrist -36.3758
lhand -7.34046 -40.33
lfingers 7.12502
lthumb 18.5433 -11.1938
rfemur -16.2919 -3.50984 21.4411
rtibia 58.593
rfoot -14.777 -14.724
rtoes -4.85329
lfemur 6.30544 -24.6082 -25.9939
ltibia 20.7355
lfoot -24.1932 24.9361
ltoes -3.48199
890
root -6.78015 15.5272 -17.613 172.335 -15.4973 -178.472
lowerback 5.58555 -0.872439 -3.31745
upperback -5.72431 -1.76858 -0.793258
thorax -9.12835 -0.756377 1.26775
lowerneck -13.35 -4.0343 -7.43054
upperneck 23.5667 -5.85297 4.15088
head 10.036 -3.26348 1.89958
rclavicle -2.14687e-014 -1.03368e-014
rhumerus 21.499 12.1991 -40.8093
rradius 27.9963
rwrist 20.9949
rhand -7.56337 -46.0694
rfingers 7.12502
rthumb -161.671 104.774
lclavicle -2.14687e-014 -1.03368e-014
lhumerus 24.8319 -11.7804 57.602
lradius 26.8697
lwrist -35.4488
lhand -7.10384 -39.9206
lfingers 7.12502
lthumb 18.7709 -10.8063
rfemur -16.9391 -3.53337 21.8095
rtibia 57.1988
rfoot -15.665 -15.4466
rtoes -3.20134
lfemur 6.75753 -24.4012 -26.3154
ltibia 21.0356
lfoot -24.7096 25.2783
ltoes -5.23628
891
root -6.82221 15.5172 -17.7001 172.323 -15.0023 -178.579
lowerback 5.65323 -0.807159 -3.45642
upperback -5.7218 -1.70554 -0.862403
thorax -9.16816 -0.719316 1.26559
lowerneck -13.1731 -3.94434 -7.53664
upperneck 23.1953 -5.75207 4.46453
head 9.87517 -3.18253 2.04593
rclavicle 1.11319e-014 1.66979e-014
rhumerus 21.5344 11.3895 -41.2978
rradius 27.7097
rwrist 22.0551
rhand -7.34387 -45.6384
rfingers 7.12502
rthumb -161.46 105.225
lclavicle 1.11319e-014 1.66979e-014
lhumerus 24.7703 -11.4857 57.8884
lradius 26.7041
lwrist -35.8083
lhand -7.23929 -39.9063
lfingers 7.12502
lthumb 18.6407 -10.7795
rfemur -17.5238 -3.42057 22.0466
rtibia 55.7375
rfoot -16.263 -16.0185
rtoes -1.77719
lfemur 7.21933 -24.083 -26.718
ltibia 21.2414
lfoot -25.1876 25.5497
ltoes -6.4205
892
root -6.86471 15.5062 -17.7865 172.374 -14.5648 -178.696
lowerback 5.57949 -0.724313 -3.54533
upperback -5.64917 -1.60472 -0.963922
thorax -9.05078 -0.67104 1.19207
lowerneck -13.2213 -3.97854 -7.42512
upperneck 22.9529 -5.76545 4.39754
head 9.79369 -3.17236 2.00277
rclavicle -1.13307e-014 1.51076e-014
rhumerus 21.8276 9.96656 -42.1244
rradius 26.9287
rwrist 23.6349
rhand -7.28387 -45.2896
rfingers 7.12502
rthumb -161.402 105.579
lclavicle -1.13307e-014 1.51076e-014
lhumerus 24.8922 -11.0985 58.2481
lradius 26.5567
lwrist -36.4456
lhand -7.48763 -39.9355
lfingers 7.12502
lthumb 18.4018 -10.7859
rfemur -18.0675 -3.25833 22.2249
rtibia 54.2094
rfoot -16.8632 -16.3443
rtoes -0.216963
lfemur 7.68301 -23.7906 -27.1014
ltibia 21.3202
lfoot -25.6792 25.6254
ltoes -5.56363
893
root -6.90339 15.5015 -17.8731 172.504 -14.1196 -178.748
lowerback 5.43283 -0.66915 -3.61138
upperback -5.67064 -1.54523 -1.04779
thorax -8.99174 -0.645253 1.1301
lowerneck -13.0654 -4.03452 -7.21515
upperneck 22.7632 -5.8112 4.09511
head 9.68436 -3.20543 1.85991
rclavicle 1.72943e-014 -6.36111e-015
rhumerus 21.9733 9.02784 -42.7835
rradius 26.4185
rwrist 24.7661
rhand -7.01971 -45.3861
rfingers 7.12502
rthumb -161.148 105.507
lclavicle 1.72943e-014 -6.36111e-015
lhumerus 25.0437 -10.7497 58.5082
lradius 26.3791
lwrist -37.0012
lhand -7.49649 -39.995
lfingers 7.12502
lthumb 18.3933 -10.8446
rfemur -18.7062 -2.99403 22.4719
rtibia 52.6334
rfoot -17.6455 -16.6816
rtoes 1.22458
lfemur 8.082 -23.5446 -27.3476
ltibia 21.2429
lfoot -25.8945 25.8205
ltoes -5.45884
894
root -6.93836 15.5044 -17.9627 172.69 -13.668 -178.842
lowerback 5.24412 -0.643316 -3.79368
upperback -5.71621 -1.53401 -1.09214
thorax -8.92914 -0.634825 1.18087
lowerneck -13.3582 -4.08409 -7.18805
upperneck 22.8956 -5.84306 3.99889
head 9.78527 -3.22308 1.81179
rclavicle -4.77083e-015 -1.35174e-014
rhumerus 22.0476 8.64911 -43.0548
rradius 26.2766
rwrist 25.3552
rhand -6.67701 -45.3409
rfingers 7.12502
rthumb -160.819 105.585
lclavicle -4.77083e-015 -1.35174e-014
lhumerus 24.8829 -12.054 57.3351
lradius 26.737
lwrist -35.4262
lhand -7.49076 -39.8681
lfingers 7.12502
lthumb 18.3988 -10.7183
rfemur -19.468 -2.74347 22.6984
rtibia 51.0489
rfoot -18.1216 -17.3667
rtoes -1.10371
lfemur 8.49736 -23.2862 -27.5793
ltibia 20.9842
lfoot -26.0877 25.9723
ltoes -5.43563
